<?xml version="1.0" encoding="UTF-8"?>
<svg width="205.23mm" height="91.791mm" version="1.1" viewBox="0 0 205.23 91.791" xmlns="http://www.w3.org/2000/svg" xmlns:cc="http://creativecommons.org/ns#" xmlns:dc="http://purl.org/dc/elements/1.1/" xmlns:rdf="http://www.w3.org/1999/02/22-rdf-syntax-ns#">
 <metadata>
  <rdf:RDF>
   <cc:Work rdf:about="">
    <dc:format>image/svg+xml</dc:format>
    <dc:type rdf:resource="http://purl.org/dc/dcmitype/StillImage"/>
    <dc:title/>
   </cc:Work>
  </rdf:RDF>
 </metadata>
 <g transform="translate(-1.3602 -77.074)">
  <path d="m119.69 168.45c-0.24568-0.12161-0.43508-0.3371-0.56086-0.63814-0.0712-0.17038-0.0804-1.2454-0.0804-9.3379v-9.1453h4.5028c5.0769 0 4.8116-0.0191 5.6919 0.4087 0.4145 0.20141 0.57206 0.31593 0.92843 0.67479 0.34711 0.34955 0.47525 0.52597 0.66995 0.92242 0.38641 0.78678 0.42503 0.99702 0.42317 2.3032-1e-3 0.92326-0.0195 1.2019-0.0997 1.524-0.29049 1.1671-1.0088 2.031-2.0959 2.5208-0.54618 0.24607-0.9836 0.3168-1.9646 0.3177-0.48563 3.1e-4 -0.91592 0.0216-0.95619 0.0472-0.0403 0.0255-0.0615 0.0911-0.0472 0.14575 0.0143 0.0547 0.58138 1.0444 1.2602 2.1993 1.5418 2.6232 3.4968 5.9936 3.7144 6.4033 0.29045 0.54698 0.20592 1.1138-0.22214 1.4897-0.37562 0.3298-0.93488 0.36568-1.3783 0.0884-0.23526-0.14712-0.36676-0.36061-3.1532-5.1195-1.5993-2.7313-2.9651-5.031-3.0351-5.1105l-0.1274-0.14451h-0.81682c-0.6725 0-0.83141 0.0146-0.8994 0.0826-0.0738 0.0738-0.0827 0.58683-0.0837 4.8477-1e-3 4.5261-6e-3 4.7757-0.0985 4.9753-0.26755 0.57788-0.99507 0.83025-1.5712 0.54504zm8.4881-12.953c0.32668-0.15694 0.56041-0.42274 0.67493-0.76751 0.0669-0.20129 0.08-0.43715 0.0661-1.184-0.0171-0.91569-0.0201-0.93729-0.16676-1.1868-0.15346-0.26107-0.49118-0.53936-0.78686-0.64837-0.12066-0.0445-1.0419-0.0628-3.3034-0.0657-2.7844-4e-3 -3.1454 5e-3 -3.2187 0.0786-0.072 0.072-0.0826 0.32156-0.0826 1.9406 0 1.6854 8e-3 1.8664 0.0902 1.9482 0.084 0.084 0.30689 0.0877 3.2712 0.0536l3.181-0.0366zm15.021 12.98c-0.83499-0.20197-1.5758-0.76621-2.0284-1.5449-0.35931-0.61824-2.9193-5.8231-3.037-6.1746-0.19392-0.57934-0.27193-1.0994-0.27193-1.813 0-1.2866 0.12737-1.6702 1.4048-4.2303 1.8108-3.6291 2.0433-4.0534 2.4381-4.4496 0.26934-0.27031 0.46223-0.40543 0.84135-0.58942 0.62086-0.30128 0.93099-0.36741 1.5662-0.33396 0.84801 0.0447 1.4169 0.29865 2.0298 0.90625l0.42411 0.4204 1.1859 2.3385c1.273 2.5102 1.8999 3.7893 2.0216 4.1252 0.30546 0.84254 0.36714 2.0798 0.15115 3.0319-0.16859 0.74316-0.63455 1.7408-2.5945 5.5551-0.73912 1.4384-0.85297 1.6299-1.1404 1.9181-0.40209 0.40316-0.81127 0.6464-1.3496 0.80233-0.49243 0.14263-1.146 0.15775-1.6412 0.038zm1.1919-2.3774c0.10912-0.0629 0.32289-0.43041 0.87498-1.504 1.415-2.7517 2.2596-4.485 2.3468-4.8166 0.11126-0.42279 0.12404-1.1265 0.0285-1.57-0.0964-0.44787-2.9218-6.1007-3.1571-6.3165-0.30405-0.27892-0.74781-0.29268-1.0774-0.0334-0.16228 0.12765-2.9582 5.7285-3.1131 6.2362-0.12614 0.41348-0.12358 1.2935 5e-3 1.716 0.12114 0.3981 2.9371 6.0713 3.0759 6.1969 0.25849 0.23393 0.7005 0.27372 1.0164 0.0915zm12.231-7.1568v-9.6184l8.1715 0.0322 0.46925 0.1474c1.0069 0.31629 1.7748 0.82798 2.4763 1.6501 0.84027 0.98479 1.1796 2.1851 1.1106 3.9282-0.059 1.488-0.4565 2.505-1.3543 3.4648-0.17092 0.18271-0.31076 0.36554-0.31076 0.4063 0 0.0408 0.12036 0.19145 0.26747 0.33488 0.6913 0.67402 1.1294 1.5431 1.3329 2.6444 0.10793 0.58394 0.10793 1.9006 0 2.4845-0.20883 1.1299-0.57126 1.8468-1.3341 2.6391-0.664 0.68963-1.4325 1.1316-2.3882 1.3736l-0.5191 0.13143h-7.9215zm7.7879 7.2482c0.74418-0.15519 1.4772-0.71637 1.8027-1.3801 0.23859-0.48652 0.28876-0.78016 0.28876-1.6902 0-0.83387-0.0856-1.2323-0.3742-1.7412-0.31572-0.55675-1.0884-1.105-1.7286-1.2264-0.1595-0.0302-1.338-0.0524-2.7878-0.0524-2.2131 0-2.5213 0.01-2.594 0.0826-0.0731 0.0731-0.0826 0.4171-0.0826 2.9916s0.01 2.9185 0.0826 2.9916c0.0728 0.0728 0.38137 0.0826 2.5986 0.0826 1.6338 0 2.6137-0.0204 2.7945-0.0581zm-0.0525-8.4597c0.44425-0.0914 1.0869-0.42738 1.3657-0.71405 0.34455-0.35421 0.60016-0.80488 0.69633-1.2277 0.1138-0.50034 0.11214-1.7688-3e-3 -2.156-0.29451-0.99208-1.0119-1.6866-1.9773-1.9142-0.26566-0.0626-0.81117-0.0777-2.8345-0.0783-2.2083-6.2e-4 -2.5153 9e-3 -2.5881 0.0818-0.0731 0.0731-0.0826 0.4171-0.0826 2.9916s9e-3 2.9185 0.0826 2.9916c0.0727 0.0727 0.37898 0.0826 2.5724 0.0826 1.5917 0 2.5902-0.0207 2.7682-0.0573zm16.415 10.746c-0.835-0.20197-1.5758-0.76621-2.0284-1.5449-0.3593-0.61824-2.9193-5.8231-3.037-6.1746-0.19391-0.57934-0.27192-1.0994-0.27192-1.813 0-1.2866 0.12737-1.6702 1.4048-4.2303 1.8108-3.6291 2.0433-4.0534 2.4381-4.4496 0.26934-0.27031 0.46223-0.40543 0.84135-0.58942 0.62086-0.30128 0.93099-0.36741 1.5662-0.33396 0.84803 0.0447 1.4169 0.29865 2.0298 0.90625l0.42408 0.4204 1.2109 2.391c2.2142 4.3723 2.2174 4.3804 2.2611 5.7016 0.0346 1.0495-0.0924 1.647-0.56644 2.6636-0.43356 0.92982-1.4217 2.9108-2.2737 4.5584-0.6063 1.1724-0.73017 1.3756-1.0092 1.6553-0.4009 0.40194-0.81049 0.64528-1.3484 0.80107-0.49243 0.14263-1.146 0.15775-1.6412 0.038zm1.1919-2.3774c0.10911-0.0629 0.32289-0.43041 0.87498-1.504 1.415-2.7517 2.2596-4.485 2.3468-4.8166 0.11126-0.42279 0.12404-1.1265 0.0285-1.57-0.0965-0.44787-2.9218-6.1007-3.1571-6.3165-0.30406-0.27892-0.74781-0.29268-1.0774-0.0334-0.16229 0.12765-2.9582 5.7285-3.1131 6.2362-0.12614 0.41348-0.12358 1.2935 5e-3 1.716 0.12113 0.3981 2.9371 6.0713 3.0759 6.1969 0.25848 0.23393 0.70049 0.27372 1.0164 0.0915zm17.812 2.3498c-0.24568-0.12161-0.43508-0.3371-0.56086-0.63814-0.071-0.17-0.0805-1.1218-0.0805-8.1274 0-7.7912-2e-3 -7.9358-0.10164-7.9892-0.061-0.0326-0.55305-0.0544-1.2312-0.0544-0.95678 0-1.1422 0.0126-1.2121 0.0826-0.0641 0.0641-0.0828 0.20241-0.0837 0.61746-1e-3 0.62497-0.0824 0.85947-0.39055 1.13-0.25676 0.22543-0.38837 0.27191-0.7699 0.27191-0.53502 0-0.96924-0.32479-1.0934-0.81785-0.0353-0.14023-0.0572-0.87168-0.0572-1.9117v-1.6846h12.25l-0.0163 1.7751-0.0163 1.7751-0.13424 0.2607c-0.0812 0.1576-0.22311 0.32314-0.35896 0.41862-0.19401 0.13636-0.27978 0.16025-0.62772 0.17492-0.37253 0.0157-0.42155 5e-3 -0.64803-0.14024-0.14856-0.0953-0.30353-0.25708-0.39371-0.41091-0.13438-0.22925-0.15043-0.30936-0.16665-0.83173-0.0141-0.45364-0.0361-0.59219-0.10241-0.64374-0.0617-0.0479-0.39302-0.0657-1.2268-0.0657-0.96839 0-1.1549 0.0126-1.2249 0.0826-0.0743 0.0743-0.0827 0.87585-0.0837 8.027-1e-3 7.6206-5e-3 7.953-0.0985 8.1546-0.26755 0.57788-0.99508 0.83025-1.5713 0.54504z" fill="#666"/>
  <g transform="matrix(1.3525 0 0 1.3525 1.3602 77.074)">
   <g transform="scale(1.0792)" fill="#40b3c3">
    <path id="path4143_3_" class="st0" d="m5 0c0.1 0 0.3 0.1 0.4 0.1 2.5 0.8 4.5 2 4.6 2.1 1.9 1.3 3.6 3.1 4.8 5.1l8.6 12.9c-0.8 1.2-1.5 2.3-2.1 3.1 0-0.1-0.1-0.1-0.1-0.2-3.6-5.2-9.8-14.5-10.2-15.2-0.9-1.3-2-2.5-3.5-3.4 0 0-1.5-1-3.5-1.6-0.8-0.3-2.2-0.5-4-0.7v42.4c1.8-0.2 3.2-0.4 4-0.7 2-0.6 3.5-1.6 3.5-1.6 1.5-1 2.7-2.2 3.5-3.4 0.4-0.7 6.6-9.9 10.1-15.2 2.9-4.6 10.3-15.6 10.8-16.4 1.2-2 2.9-3.8 4.8-5.1 0-0.1 2.1-1.3 4.6-2.1l0.5-0.1zm41.7 2.2c-1.8 0.2-3.2 0.4-4 0.7-2.1 0.6-3.6 1.6-3.6 1.6-1.5 0.9-2.6 2.1-3.5 3.4-0.4 0.7-6.6 9.9-10.1 15.2-2.9 4.4-10.3 15.5-10.8 16.2-1.2 2-2.9 3.8-4.8 5.1 0 0.1-2.1 1.3-4.6 2.1l-0.5 0.1h36.8l-0.4-0.1c-2.5-0.8-4.5-2-4.6-2.1-1.9-1.3-3.6-3.1-4.8-5.1l-8.6-12.9c0.8-1.2 1.5-2.3 2.1-3.1 0 0.1 0.1 0.1 0.1 0.2 3.5 5.3 9.7 14.5 10.1 15.2 0.9 1.3 2 2.5 3.5 3.4 0 0 1.5 1 3.5 1.6 0.8 0.3 2.2 0.5 4 0.7v2.1h0.1v-44.3z"/>
    <path id="path7-3_4_" class="st1" d="m25.4 23.3c-0.6 0.8-1.3 1.9-2.1 3.1 3.4 5.1 8.1 12.3 8.6 12.9 1.2 2 2.9 3.8 4.8 5.1 0 0.1 2.1 1.3 4.6 2.1 0.2 0 0.4 0.1 0.5 0.1h4.8v-2.2c-1.8-0.2-3.2-0.4-4-0.7-2-0.6-3.5-1.6-3.5-1.6-1.5-0.9-2.6-2.1-3.5-3.4-0.4-0.7-6.6-9.9-10.1-15.2 0 0 0-0.1-0.1-0.2m-20.6-23.3h-4.8v2.2c1.8 0.2 3.2 0.4 4 0.7 2 0.6 3.5 1.6 3.5 1.6 1.5 0.9 2.6 2.1 3.5 3.4 0.4 0.7 6.6 9.9 10.1 15.2 0 0.1 0.1 0.1 0.1 0.2 0.6-0.8 1.3-1.9 2.1-3.1-3.4-5.1-8.1-12.3-8.6-12.9-1.2-2-2.9-3.8-4.8-5.1 0-0.1-2.1-1.3-4.6-2.1-0.1 0-0.3-0.1-0.5-0.1" opacity=".28"/>
    <path class="st0" d="m140.6 31.9c0 6.3-4.5 8.5-9.6 8.5-3.9 0-7.6-0.8-10.5-2.7l1-1.9c2.6 1.6 5.9 2.6 9.4 2.6 3.9 0 7.4-1.6 7.4-6.5 0-4.1-3.7-5-8.1-6.2-4.7-1.3-8.7-3-8.7-8.5s4.4-7.7 9.2-7.7c2.7 0 5.5 0.3 8.1 1.6l-0.9 2c-2.2-1.1-4.6-1.5-7.2-1.5-3.9 0-7 1.3-7 5.7 0 3.8 2.7 5 7.4 6.3 5.2 1.4 9.5 2.6 9.5 8.3zm-32.1-6.1c0 7.3-1.1 12.5-8 12.5h-0.6c-6.9 0-8-5.1-8-12.5v-16.4c-0.8 0.4-1.7 0.9-2.4 1.5v15.6c0 6.5 1.2 13.9 10 13.9h1.3c8.7 0 10-7.4 10.1-14v-15.6c-0.7-0.6-1.5-1.1-2.4-1.5zm-27.8-0.9v0.8h-20.8v1.2c0.4 9.5 4.6 11.5 10 11.5 3.3 0 5.9-0.6 8.7-2.2l0.9 2c-2.8 1.7-6 2.3-9.6 2.3-6.8 0-12.3-2.8-12.3-15.5 0-13.6 6.4-15.6 11.8-15.6 7-0.1 11.3 3.8 11.3 15.5zm-2.4-1.4c0-9.2-3.6-12-9-12-4.9 0-9.3 1.9-9.5 12z"/>
   </g>
  </g>
  <g transform="matrix(.31236 0 0 .31236 69.795 93.011)" fill="#666">
   <path d="m86.648 242.38c-1.1739-0.50915-9.0799-8.3236-10.015-9.899l-0.7067-1.1906-0.07723-19.579c-0.05801-14.706 0.0025-19.876 0.24322-20.77 0.27423-1.0189 0.99133-1.8727 4.972-5.9196 2.9081-2.9565 5.0483-4.9129 5.7099-5.2197 1.001-0.4641 2.1338-0.49069 20.902-0.49069 18.768 0 19.901 0.0266 20.902 0.49069 0.65912 0.30561 2.8176 2.2745 5.7223 5.2197 4.4871 4.5497 4.6758 4.7842 4.9777 6.1842 0.23031 1.0682 0.29171 6.5923 0.23085 20.77l-0.0829 19.315-0.7067 1.1906c-0.98461 1.6588-8.8547 9.4014-10.074 9.9109-1.4542 0.6076-40.595 0.59652-41.997-0.0119zm42.509-9.4297c2.3136-2.2872 3.3516-3.5079 3.5438-4.1672 0.17746-0.60893 0.24377-6.9671 0.19114-18.328l-0.0806-17.395-3.5069-3.5068-3.5069-3.5068-36.064-0.1432-7.1932 7.1392-0.07175 17.355c-0.0454 10.982 0.02548 17.716 0.19304 18.338 0.19962 0.74133 1.0695 1.7789 3.5349 4.2163l3.2701 3.2329h36.418zm-38.509-8.8124c-1.8902-1.5905-1.5075-4.7424 0.68599-5.651 0.53705-0.22245 5.1501-0.28592 16.961-0.23338l16.223 0.0722 0.9056 0.9883c0.72042 0.78622 0.9056 1.2082 0.9056 2.0637 0 0.59145-0.18061 1.4246-0.40136 1.8515-0.83722 1.619-0.37365 1.5788-18.218 1.5788h-16.265zm-0.20748-14.952c-1.1064-0.70885-1.5064-1.7676-1.3696-3.6253 0.22958-3.1178 2.2061-5.9304 5.201-7.4012 1.2854-0.63124 1.8159-0.73456 3.7464-0.72964 2.6908 7e-3 4.5942 0.752 6.314 2.4718 3.0916 3.0916 3.677 8.0932 1.103 9.4243-0.93822 0.48517-2.2883 0.5119-3.1757 0.0629-0.83918-0.42463-1.86-1.9375-1.86-2.7565 0-1.8233-1.678-3.0268-3.2843-2.3556-0.89586 0.37431-1.3124 1.117-1.5987 2.8507-0.23437 1.4193-1.6598 2.6013-3.1299 2.5954-0.65916-3e-3 -1.4551-0.22219-1.9462-0.53684zm23.056 0.28887c-0.29105-0.12038-0.82683-0.53914-1.1906-0.93058-0.53409-0.57467-0.66146-0.98372-0.66146-2.1243 0-1.8322 0.20427-2.0419 5.433-5.5788 3.6318-2.4566 4.3043-2.8169 5.2346-2.804 1.4711 0.0203 2.5375 0.63976 3.084 1.7914 0.53571 1.1289 0.40666 2.5463-0.3171 3.4829-0.25846 0.33448-2.4261 1.9148-4.817 3.5119-4.4878 2.9978-5.2273 3.2876-6.7655 2.6514z"/>
   <path d="m86.487 242.27c-0.63053-0.31211-2.9016-2.3799-5.4484-4.9607-3.661-3.7098-4.4382-4.6364-4.8058-5.7294-0.39216-1.166-0.43853-3.315-0.43853-20.322 0-13.386 0.08972-19.386 0.30298-20.26 0.27188-1.1142 0.80823-1.7487 5.2255-6.1819 4.0241-4.0386 5.1157-4.992 5.9809-5.224 1.4813-0.39722 39.286-0.39316 40.746 4e-3 0.86124 0.23451 1.9754 1.2074 5.9828 5.224 4.426 4.4363 4.955 5.0616 5.2255 6.1775 0.21058 0.86856 0.30104 6.9161 0.30104 20.126 0 16.52-0.0529 19.065-0.42254 20.322-0.38721 1.3169-0.80205 1.8144-4.9609 5.9493-2.4961 2.4817-4.9731 4.7141-5.5044 4.9609-0.88155 0.40951-2.7208 0.44872-21.034 0.44853-19.611-2e-4 -20.093-0.0124-21.15-0.5354zm42.561-9.1878c1.7406-1.7099 3.3292-3.492 3.5302-3.9602 0.29846-0.69505 0.3656-3.9751 0.3656-17.861 0-9.3554-0.10561-17.366-0.2347-17.802-0.20612-0.69559-5.7802-6.5658-6.9177-7.2852-0.53487-0.33828-35.594-0.33458-36.226 4e-3 -0.69024 0.36941-6.712 6.5156-6.9339 7.0772-0.10227 0.2588-0.19431 8.3048-0.20453 17.88-0.01553 14.527 0.04341 17.528 0.35593 18.124 0.20599 0.39296 1.7946 2.1134 3.5302 3.8233l3.1557 3.1089h36.414l3.1646-3.1089zm-38.09-8.7842c-1.0731-0.65434-1.4941-1.4488-1.4941-2.8197 0-1.4327 0.86468-2.6467 2.152-3.0214 0.6653-0.19368 6.0841-0.25938 16.915-0.20508l15.936 0.0799 0.81833 0.81846c1.5508 1.551 1.2851 4.1445-0.53455 5.2194-0.68242 0.40312-2.2492 0.44435-16.851 0.44345-15.474-1e-3 -16.131-0.0209-16.942-0.515zm-0.40089-15.023c-1.1561-0.71709-1.6217-1.8624-1.4892-3.6634 0.23033-3.1295 2.2248-5.9838 5.2033-7.4465 1.2866-0.63181 1.8166-0.73508 3.7475-0.73016 1.8671 5e-3 2.496 0.1228 3.7042 0.69526 2.9648 1.4048 5.0145 4.3275 5.2466 7.4814 0.13429 1.8246-0.3453 2.9746-1.5332 3.6763-2.0693 1.2224-5.0322-0.4335-5.0354-2.8141-1e-3 -1.0845-0.45448-1.7639-1.4549-2.1819-1.6189-0.67642-3.3066 0.50588-3.3096 2.3185-0.0013 0.88606-0.91315 2.2401-1.8263 2.7123-1.0254 0.53026-2.3527 0.51081-3.2531-0.0477zm22.94 0.20497c-0.29105-0.12038-0.82683-0.53914-1.1906-0.93058-0.53409-0.57467-0.66146-0.98372-0.66146-2.1243 0-1.8297 0.1693-2.0026 5.4047-5.5188 3.8242-2.5684 4.2998-2.8156 5.4169-2.8156 2.3996 0 3.9635 2.4289 2.9454 4.5743-0.35084 0.73934-1.4156 1.5944-4.9899 4.0072-4.6944 3.1689-5.38 3.4469-6.9251 2.8078z"/>
   <path d="m86.245 242.04c-0.75763-0.43647-3.086-2.5578-5.4489-4.9645-3.4882-3.5527-4.1947-4.4093-4.5707-5.5413-0.4033-1.2142-0.43796-3.1616-0.37197-20.896 0.07267-19.528 0.07363-19.559 0.64955-20.615 0.31722-0.58208 2.5794-3.0488 5.0271-5.4817 3.4641-3.4431 4.7069-4.5132 5.6081-4.8286 0.99905-0.34977 3.8054-0.40532 20.475-0.40532 14.162 0 19.607 0.0841 20.406 0.31525 0.87029 0.25193 2.0106 1.2218 5.6769 4.8286 2.5233 2.4824 4.845 4.9896 5.1594 5.5717 0.56832 1.0524 0.57199 1.1659 0.65529 20.241 0.0609 13.945-8e-4 19.58-0.22628 20.638-0.29884 1.4026-0.47869 1.626-4.9786 6.1818-2.8865 2.9224-5.0725 4.9148-5.7268 5.2197-1.0029 0.46727-2.1044 0.49326-21.034 0.49642l-19.976 3e-3 -1.3229-0.76213zm42.803-8.9563c1.7406-1.7099 3.3292-3.492 3.5302-3.9602 0.29859-0.69535 0.3656-4.0018 0.3656-18.041 0-11.362-0.0942-17.442-0.27797-17.934-0.32147-0.86139-5.5926-6.2866-6.6542-6.8488-1.0593-0.56092-35.601-0.56471-36.671-4e-3 -1.0858 0.56882-6.6043 6.2912-6.7882 7.0388-0.0888 0.36115-0.12776 8.6077-0.08658 18.326l0.07487 17.669 6.919 6.8632h36.424zm-38.09-8.7842c-1.0432-0.63607-1.4781-1.4166-1.4781-2.6524 0-1.3322 0.68279-2.5052 1.7541-3.0136 0.81217-0.3854 2.6406-0.43255 16.774-0.43255h15.862l0.89517 0.60326c1.2078 0.81396 1.6109 1.6621 1.4691 3.0918-0.093 0.93781-0.31277 1.3608-1.0654 2.0505l-0.94823 0.86898-16.21-1e-3c-15.584-1e-3 -16.242-0.0208-17.053-0.51501zm0.04926-14.818c-1.8959-0.7842-2.4987-3.3794-1.4471-6.2299 0.878-2.3799 3.2737-4.6614 5.6729-5.4024 0.9807-0.30291 2.2343-0.55074 2.7857-0.55074s1.805 0.24783 2.7857 0.55074c1.4941 0.46148 2.0508 0.81525 3.4352 2.1828 1.915 1.8918 2.775 3.7959 2.775 6.1438 0 1.2662-0.10861 1.5677-0.86005 2.3876-1.5502 1.6915-4.0464 1.455-5.2361-0.49608-0.28407-0.46588-0.51693-1.1823-0.51747-1.592-1e-3 -1.0344-0.40834-1.692-1.348-2.1778-1.5336-0.79307-3.4144 0.37497-3.4165 2.1218-0.0028 2.229-2.5577 3.919-4.6292 3.0621zm22.172-0.25054c-0.97957-0.6152-1.6669-1.7944-1.6655-2.8573 2e-3 -1.4193 0.92683-2.3524 5.2077-5.2538 3.6923-2.5024 4.3438-2.8506 5.5438-2.962 1.2572-0.11674 1.4327-0.0591 2.3243 0.76396 1.1842 1.0931 1.4711 2.3782 0.83169 3.7256-0.33693 0.71004-1.4431 1.6044-4.8346 3.9087-4.9009 3.3299-5.8302 3.6654-7.4074 2.6749z"/>
   <path d="m86.642 242.25c-1.7047-0.77002-9.8384-8.9694-10.347-10.431-0.30222-0.86805-0.36847-4.626-0.36847-20.902 0-18.794 0.02589-19.893 0.48924-20.77 0.67387-1.2755 8.7912-9.4289 10.094-10.139l1.0583-0.57674h20.108c19.051 0 20.157 0.0257 21.034 0.48924 1.263 0.66724 9.4383 8.7977 10.073 10.017 0.49133 0.9446 0.51059 1.7412 0.51059 21.111 0 19.37-0.0193 20.166-0.51062 21.111-0.73573 1.4144-9.1857 9.732-10.395 10.232-0.85556 0.35383-3.5609 0.40607-20.77 0.40101-19.319-6e-3 -19.814-0.0185-20.977-0.54363zm42.71-9.4967 3.4595-3.4316 0.0717-17.799c0.0488-12.117-0.018-18.016-0.20937-18.478-0.15457-0.37318-1.7067-2.1005-3.4493-3.8385l-3.1682-3.16h-36.761l-3.1682 3.16c-1.7425 1.738-3.2947 3.4653-3.4493 3.8385-0.19131 0.46187-0.25816 6.3575-0.20937 18.466l0.07167 17.788 6.8715 6.8866h36.48zm-38.275-8.3564c-2.1235-1.1617-1.9851-4.7544 0.22347-5.8025 1.2332-0.58518 31.651-0.60376 33.047-0.0202 2.0915 0.8739 2.5872 3.6334 0.94724 5.2736l-0.82759 0.82771-16.333 0.0588c-14.085 0.0507-16.433 4e-3 -17.057-0.33744zm-0.48951-15.274c-1.2863-0.86681-1.6098-1.6351-1.4797-3.514 0.14305-2.0664 0.89784-3.7435 2.4144-5.3648 2.6019-2.7816 6.6714-3.5971 10.146-2.0331 3.1366 1.412 5.3468 4.7012 5.3468 7.9571 0 1.2692-0.10791 1.5669-0.86898 2.3974-2.0953 2.2864-5.7456 0.76924-5.7456-2.388 0-0.36036-0.28502-0.98656-0.63338-1.3916-1.3807-1.6052-4.1276-0.55339-4.1301 1.5815-2e-3 1.7368-1.7034 3.3587-3.5233 3.3587-0.34696 0-1.0337-0.27146-1.526-0.60325zm22.563 0.0673c-1.6753-1.0214-2.0554-3.4395-0.76603-4.8734 0.32094-0.35694 2.459-1.9052 4.7512-3.4406 3.727-2.4965 4.2914-2.7916 5.3375-2.7916 1.4241 0 2.6108 0.88031 3.0725 2.2793 0.25481 0.77209 0.23299 1.1405-0.12273 2.0719-0.38886 1.0182-0.82648 1.3976-4.3243 3.7486-2.1404 1.4387-4.2501 2.8192-4.6882 3.0677-1.0684 0.60617-2.1994 0.58471-3.2599-0.0618z"/>
   <path d="m86.702 242.28c-1.43-0.64903-9.5183-8.6855-10.257-10.191-0.50155-1.0227-0.51904-1.7225-0.51904-20.77 0-16.182 0.06611-19.901 0.36917-20.77 0.4467-1.2806 8.5488-9.6421 10.214-10.541 1.0579-0.57112 1.0665-0.57135 21.167-0.57135h20.108l1.0583 0.57381c1.481 0.80297 9.533 8.986 10.043 10.206 0.35566 0.85121 0.4082 3.5506 0.4082 20.972 0 19.238-0.0193 20.032-0.51062 20.977-0.73573 1.4144-9.1857 9.732-10.395 10.232-0.85556 0.35383-3.5609 0.40607-20.77 0.40101-19.009-6e-3 -19.831-0.0259-20.917-0.51902zm42.674-9.5331 3.4358-3.4433 0.0717-17.788c0.0498-12.359-0.0161-17.999-0.21591-18.482-0.15817-0.38186-1.7489-2.1389-3.5348-3.9046l-3.2473-3.2103h-36.416l-3.1557 3.1089c-1.7356 1.7099-3.3243 3.4304-3.5302 3.8233-0.31218 0.59553-0.37453 3.675-0.37453 18.499v17.784l6.9862 7.0553h36.545zm-38.299-8.3447c-0.93994-0.51423-1.5247-1.6722-1.5247-3.0194 0-0.85545 0.18518-1.2774 0.90557-2.0637l0.90557-0.9883 16.017-0.074c13.611-0.0629 16.157-0.0156 16.948 0.31481 2.1096 0.88145 2.6132 3.6342 0.96614 5.2815l-0.82759 0.82771-16.333 0.0588c-14.085 0.0507-16.433 4e-3 -17.057-0.33744zm-0.48951-15.274c-1.3093-0.88237-1.6151-1.6297-1.4563-3.5594 0.49722-6.0407 6.9857-9.8414 12.543-7.3473 3.2217 1.4458 5.1817 4.3718 5.1984 7.7607 9e-3 1.8581-0.0263 1.9714-0.84826 2.7064-1.1247 1.0057-2.0373 1.2118-3.3346 0.75311-1.3038-0.46106-1.9519-1.3163-2.2596-2.9818-0.31009-1.6784-1.0387-2.4051-2.4115-2.4051-1.3679 0-2.1003 0.7251-2.4107 2.3868-0.30605 1.6382-0.85366 2.4497-1.967 2.9149-1.2579 0.52559-2.0194 0.46862-3.0538-0.22848zm22.777 0.15289c-1.8367-0.94348-2.3364-3.4655-0.98039-4.948 0.32094-0.35085 2.4583-1.8991 4.7498-3.4406 3.7327-2.511 4.2882-2.8027 5.3375-2.8027 2.1515 0 3.7254 2.0968 3.0683 4.0878-0.38699 1.1726-1.1951 1.8573-5.7265 4.8517-4.0707 2.69-4.9786 3.007-6.4487 2.2518z"/>
   <path d="m86.907 242.39c-1.1703-0.50175-9.6264-8.8721-10.403-10.298l-0.57677-1.0583v-19.711c0-16.182 0.06611-19.901 0.36917-20.77 0.4467-1.2806 8.5488-9.6421 10.214-10.541 1.0535-0.56873 1.1481-0.57168 20.615-0.64413 17.692-0.0658 19.685-0.0306 20.902 0.36973 1.1529 0.3793 1.9781 1.0677 5.7774 4.8192 2.6819 2.6482 4.6412 4.8079 4.9609 5.4685 0.51395 1.0617 0.52852 1.6406 0.52852 20.993 0 17.303-0.0531 20.029-0.40682 20.885-0.54526 1.3184-8.8867 9.7323-10.309 10.398-1.0053 0.47081-2.0532 0.49543-20.902 0.49112-17.048-4e-3 -19.974-0.0605-20.77-0.40158zm42.55-9.73 3.4985-3.5331-0.143-36.341-6.919-6.8632h-36.433l-6.919 6.8632-0.14308 36.341 6.997 7.0662h36.563zm-38.198-8.2545c-1.7494-0.86337-2.278-3.3672-1.0252-4.8561 0.37453-0.4451 1.1187-0.93716 1.6536-1.0935 0.65916-0.19259 6.0196-0.25809 16.63-0.20322 15.448 0.0799 15.667 0.0884 16.404 0.63857 0.41064 0.30667 0.91689 1.005 1.125 1.5518 0.51752 1.3597-0.0105 2.9181-1.2771 3.769l-0.89903 0.60393-15.902-6e-3c-13.621-5e-3 -16.018-0.0632-16.709-0.40446zm-0.31194-15.05c-1.3603-0.61142-1.9806-1.8423-1.8344-3.6397 0.32968-4.0521 3.4634-7.4823 7.3995-8.0996 4.6369-0.72713 8.7614 1.852 10.084 6.3055 0.82244 2.7694 0.25977 4.6711-1.6138 5.4539-2.0355 0.85049-4.1258-0.43343-4.4728-2.7473-0.23594-1.5734-1.2825-2.714-2.4901-2.714-1.0547 0-2.3812 1.2463-2.3812 2.2371 0 1.0431-0.66977 2.432-1.4051 2.9138-0.939 0.61526-2.2963 0.73516-3.286 0.29029zm22.418-0.0707c-1.8366-0.94339-2.3368-3.4672-0.98039-4.9464 0.32094-0.35001 2.4885-1.9082 4.8168-3.4627 4.138-2.7626 4.2618-2.8237 5.4987-2.71 2.1275 0.19558 3.3699 1.9715 2.8066 4.0118-0.30865 1.1178-0.85255 1.5812-5.6024 4.7728-4.1392 2.7813-5.0421 3.1036-6.5394 2.3345z"/>
   <path d="m87.056 242.41c-1.3423-0.47821-9.7583-8.7589-10.49-10.321-0.47056-1.0047-0.49595-2.067-0.50147-20.977-0.0051-17.353 0.04671-20.044 0.402-20.894 0.50953-1.2195 8.2521-9.0896 9.9109-10.074l1.1906-0.7067h19.844c16.312 0 20.032 0.0658 20.902 0.36981 1.3516 0.47227 9.093 8.0153 10.211 9.9489l0.76462 1.3229-3e-3 19.976c-3e-3 18.891-0.03 20.034-0.49386 21.034-0.30616 0.66053-2.2184 2.7548-5.0874 5.5717-3.6694 3.6028-4.8166 4.577-5.6859 4.8286-1.7156 0.49663-39.552 0.42377-40.963-0.0789zm38.593-6.2131c0.86817-0.33008 6.9993-6.5325 7.1777-7.2612 0.0743-0.30324 0.10132-8.5619 0.0602-18.353l-0.0748-17.801-6.919-6.8632h-36.451l-7.0331 7.0331v36.044l0.8599 1.0226c1.4 1.665 5.8436 5.9478 6.4161 6.1839 0.76648 0.31619 35.132 0.31099 35.964-5e-3zm-34.39-11.795c-1.0661-0.52614-1.7062-1.663-1.7062-3.0302 0-0.90971 0.1624-1.2725 0.89958-2.0097l0.89958-0.89959h33.167l0.75394 0.75394c1.4823 1.4824 1.1963 3.977-0.58028 5.0601-0.85301 0.52006-1.2893 0.53384-16.751 0.52893-13.598-4e-3 -15.991-0.0622-16.682-0.40348zm-0.09393-15.01c-2.1357-0.76343-2.6609-3.5882-1.2433-6.6866 3.0911-6.7563 12.763-6.9373 16.03-0.29998 1.901 3.8616 0.91711 7.1816-2.1284 7.1816-1.8589 0-2.9332-1.0932-3.2875-3.3455-0.18668-1.1866-1.4223-2.331-2.5168-2.331-1.2492 0-2.3025 1.1117-2.5147 2.654-0.13298 0.96686-0.39545 1.5383-0.97082 2.1137-0.43371 0.43371-0.92823 0.79018-1.0989 0.79217-0.17071 2e-3 -0.5485 0.0577-0.83954 0.12373-0.29104 0.0661-0.93473-0.0249-1.4304-0.20205zm22.798 0.16196c-0.32619-0.0679-0.95126-0.48166-1.3891-0.91946-0.68086-0.68086-0.796-0.99502-0.796-2.172 0-0.75751 0.16812-1.616 0.37402-1.91 0.20571-0.29369 2.382-1.868 4.8363-3.4985 4.7454-3.1526 5.3778-3.3861 6.9576-2.5691 1.1265 0.58254 1.5904 1.4093 1.5904 2.8343 0 1.6675-0.45521 2.1263-5.424 5.4666-3.8165 2.5657-4.8616 3.0361-6.1493 2.768z"/>
  </g>
 </g>
 <style type="text/css">.st0{fill:#666666;}
	.st1{fill:#7FD787;}
	.st2{opacity:0.28;fill:#7FD787;enable-background:new    ;}</style>
 <style type="text/css">.st0{fill:#40B3C3;}
	.st1{opacity:0.28;fill:#40B3C3;}</style>
</svg>
